<svg width="48" height="48" viewBox="0 0 48 48" fill="none" xmlns="http://www.w3.org/2000/svg">
<rect width="48" height="48" rx="4" fill="#E1E5EE"/>
<path d="M33.4995 16.5H19.0179C18.6896 16.4999 18.3644 16.5646 18.0611 16.6903C17.7577 16.8159 17.4821 17.0001 17.25 17.2324L11.3662 23.1158C10.8779 23.6041 10.8779 24.3954 11.3662 24.8833L17.25 30.7671C17.7187 31.2358 18.3546 31.4995 19.0175 31.4995H33.4995C34.8803 31.4995 35.9994 30.3804 35.9994 28.9996V18.9999C35.9994 17.6191 34.8803 16.5 33.4995 16.5ZM30.1914 26.4239C30.4355 26.668 30.4355 27.0637 30.1914 27.3079L29.3078 28.1914C29.0637 28.4355 28.668 28.4355 28.4238 28.1914L25.9997 25.7673L23.5756 28.1914C23.3314 28.4355 22.9357 28.4355 22.6916 28.1914L21.808 27.3079C21.5639 27.0637 21.5639 26.668 21.808 26.4239L24.2322 23.9998L21.808 21.5756C21.5639 21.3315 21.5639 20.9358 21.808 20.6917L22.6916 19.8081C22.9357 19.564 23.3314 19.564 23.5756 19.8081L25.9997 22.2322L28.4238 19.8081C28.668 19.564 29.0637 19.564 29.3078 19.8081L30.1914 20.6917C30.4355 20.9358 30.4355 21.3315 30.1914 21.5756L27.7672 23.9998L30.1914 26.4239Z" fill="#364A73"/>
</svg>
