<svg width="12" height="12" viewBox="0 0 12 12" fill="none" xmlns="http://www.w3.org/2000/svg">
<path d="M3.8767 6.00004L0.692656 2.71649C0.301929 2.31355 0.301929 1.66026 0.692656 1.25699L1.40029 0.52724C1.79102 0.124302 2.42452 0.124302 2.81557 0.52724L5.99961 3.81079L9.18366 0.52724C9.57438 0.124302 10.2079 0.124302 10.5989 0.52724L11.3066 1.25699C11.6973 1.65993 11.6973 2.31322 11.3066 2.71649L8.12252 6.00004L11.3066 9.28358C11.6973 9.68652 11.6973 10.3398 11.3066 10.7431L10.5989 11.4728C10.2082 11.8758 9.57438 11.8758 9.18366 11.4728L5.99961 8.18929L2.81557 11.4728C2.42484 11.8758 1.79102 11.8758 1.40029 11.4728L0.692656 10.7431C0.301929 10.3401 0.301929 9.68685 0.692656 9.28358L3.8767 6.00004Z" fill="white"/>
</svg>
