<svg width="40" height="40" viewBox="0 0 40 40" fill="none" xmlns="http://www.w3.org/2000/svg">
<path fill-rule="evenodd" clip-rule="evenodd" d="M12.9896 11.0099C12.4428 10.4632 11.5564 10.4632 11.0097 11.0099C10.4629 11.5566 10.4629 12.4431 11.0097 12.9898L18.0203 20.0005L11.0109 27.0099C10.4642 27.5566 10.4642 28.4431 11.0109 28.9898C11.5576 29.5365 12.4441 29.5365 12.9908 28.9898L20.0002 21.9804L27.0097 28.9898C27.5564 29.5365 28.4428 29.5365 28.9896 28.9898C29.5363 28.4431 29.5363 27.5566 28.9896 27.0099L21.9801 20.0005L28.9908 12.9898C29.5375 12.4431 29.5375 11.5566 28.9908 11.0099C28.4441 10.4632 27.5576 10.4632 27.0109 11.0099L20.0002 18.0206L12.9896 11.0099Z" fill="#364A73"/>
</svg>
