<svg width="19" height="21" viewBox="0 0 19 21" fill="none" xmlns="http://www.w3.org/2000/svg">
<path d="M18.1953 6.5625C18.466 6.5625 18.6875 6.34102 18.6875 6.07031V4.42969C18.6875 4.15898 18.466 3.9375 18.1953 3.9375H17.375V1.96875C17.375 0.881836 16.4932 0 15.4062 0H2.28125C1.19434 0 0.3125 0.881836 0.3125 1.96875V19.0312C0.3125 20.1182 1.19434 21 2.28125 21H15.4062C16.4932 21 17.375 20.1182 17.375 19.0312V17.0625H18.1953C18.466 17.0625 18.6875 16.841 18.6875 16.5703V14.9297C18.6875 14.659 18.466 14.4375 18.1953 14.4375H17.375V11.8125H18.1953C18.466 11.8125 18.6875 11.591 18.6875 11.3203V9.67969C18.6875 9.40898 18.466 9.1875 18.1953 9.1875H17.375V6.5625H18.1953ZM8.84375 5.25C10.2916 5.25 11.4688 6.42715 11.4688 7.875C11.4688 9.32285 10.2916 10.5 8.84375 10.5C7.3959 10.5 6.21875 9.32285 6.21875 7.875C6.21875 6.42715 7.3959 5.25 8.84375 5.25ZM13.4375 14.9625C13.4375 15.3973 13.0273 15.75 12.5188 15.75H5.16875C4.66016 15.75 4.25 15.3973 4.25 14.9625V14.175C4.25 12.8707 5.48457 11.8125 7.00625 11.8125H7.21133C7.71582 12.0217 8.26543 12.1406 8.84375 12.1406C9.42207 12.1406 9.97578 12.0217 10.4762 11.8125H10.6813C12.2029 11.8125 13.4375 12.8707 13.4375 14.175V14.9625Z" fill="white"/>
</svg>
