<svg width="16" height="16" viewBox="0 0 16 16" fill="none" xmlns="http://www.w3.org/2000/svg">
<path d="M5.19355 8.43548C5.03387 8.43548 4.90323 8.30484 4.90323 8.14516V7.85484C4.90323 7.69516 5.03387 7.56452 5.19355 7.56452H10.8065C10.9661 7.56452 11.0968 7.69516 11.0968 7.85484V8.14516C11.0968 8.30484 10.9661 8.43548 10.8065 8.43548H5.19355ZM14 8C14 11.3145 11.3145 14 8 14C4.68548 14 2 11.3145 2 8C2 4.68548 4.68548 2 8 2C11.3145 2 14 4.68548 14 8ZM13.2258 8C13.2258 5.09919 10.8718 2.77419 8 2.77419C5.09919 2.77419 2.77419 5.12823 2.77419 8C2.77419 10.9008 5.12823 13.2258 8 13.2258C10.9008 13.2258 13.2258 10.8718 13.2258 8Z" fill="#FF622A"/>
</svg>
