<svg width="14" height="19" viewBox="0 0 14 19" fill="none" xmlns="http://www.w3.org/2000/svg">
<path d="M7.00279 15.4448C7.33871 15.4448 7.66709 15.5444 7.9464 15.731C8.22571 15.9177 8.44341 16.1829 8.57196 16.4933C8.70051 16.8036 8.73415 17.1451 8.66861 17.4746C8.60308 17.8041 8.44131 18.1067 8.20378 18.3442C7.96625 18.5818 7.66361 18.7435 7.33414 18.8091C7.00467 18.8746 6.66317 18.841 6.35282 18.7124C6.04246 18.5839 5.7772 18.3662 5.59057 18.0869C5.40394 17.8075 5.30433 17.4792 5.30433 17.1432C5.30433 16.6928 5.48328 16.2608 5.8018 15.9422C6.12032 15.6237 6.55233 15.4448 7.00279 15.4448ZM7.00279 10.9156C7.33871 10.9156 7.66709 11.0152 7.9464 11.2018C8.22571 11.3884 8.44341 11.6537 8.57196 11.964C8.70051 12.2744 8.73415 12.6159 8.66861 12.9454C8.60308 13.2748 8.44131 13.5775 8.20378 13.815C7.96625 14.0525 7.66361 14.2143 7.33414 14.2798C7.00467 14.3454 6.66317 14.3117 6.35282 14.1832C6.04246 14.0546 5.7772 13.8369 5.59057 13.5576C5.40394 13.2783 5.30433 12.9499 5.30433 12.614C5.30433 12.1636 5.48328 11.7315 5.8018 11.413C6.12032 11.0945 6.55233 10.9156 7.00279 10.9156ZM7.00279 6.38634C7.33871 6.38634 7.66709 6.48595 7.9464 6.67258C8.22571 6.85921 8.44341 7.12447 8.57196 7.43482C8.70051 7.74518 8.73415 8.08668 8.66861 8.41615C8.60308 8.74562 8.44131 9.04825 8.20378 9.28579C7.96625 9.52332 7.66361 9.68508 7.33414 9.75062C7.00467 9.81615 6.66317 9.78252 6.35282 9.65397C6.04246 9.52541 5.7772 9.30772 5.59057 9.02841C5.40394 8.7491 5.30433 8.42072 5.30433 8.0848C5.30433 7.63434 5.48328 7.20233 5.8018 6.8838C6.12032 6.56528 6.55233 6.38634 7.00279 6.38634ZM7.00279 1.85712C7.33871 1.85712 7.66709 1.95673 7.9464 2.14336C8.22571 2.32999 8.44341 2.59525 8.57196 2.9056C8.70051 3.21596 8.73415 3.55746 8.66861 3.88693C8.60308 4.2164 8.44131 4.51903 8.20378 4.75657C7.96625 4.9941 7.66361 5.15586 7.33414 5.2214C7.00467 5.28693 6.66317 5.2533 6.35282 5.12475C6.04246 4.99619 5.7772 4.7785 5.59057 4.49919C5.40394 4.21988 5.30433 3.8915 5.30433 3.55557C5.30433 3.10512 5.48328 2.67311 5.8018 2.35458C6.12032 2.03606 6.55233 1.85712 7.00279 1.85712ZM2.47357 10.9156C2.80949 10.9156 3.13787 11.0152 3.41718 11.2018C3.69649 11.3884 3.91419 11.6537 4.04274 11.964C4.17129 12.2744 4.20493 12.6159 4.13939 12.9454C4.07386 13.2748 3.91209 13.5775 3.67456 13.815C3.43703 14.0525 3.13439 14.2143 2.80492 14.2798C2.47545 14.3454 2.13395 14.3117 1.8236 14.1832C1.51324 14.0546 1.24798 13.8369 1.06135 13.5576C0.874722 13.2783 0.775109 12.9499 0.775109 12.614C0.775109 12.1636 0.954054 11.7315 1.27258 11.413C1.5911 11.0945 2.02311 10.9156 2.47357 10.9156ZM2.47357 6.38634C2.80949 6.38634 3.13787 6.48595 3.41718 6.67258C3.69649 6.85921 3.91419 7.12447 4.04274 7.43482C4.17129 7.74518 4.20493 8.08668 4.13939 8.41615C4.07386 8.74562 3.91209 9.04825 3.67456 9.28579C3.43703 9.52332 3.13439 9.68508 2.80492 9.75062C2.47545 9.81615 2.13395 9.78252 1.8236 9.65397C1.51324 9.52541 1.24798 9.30772 1.06135 9.02841C0.874722 8.7491 0.775109 8.42072 0.775109 8.0848C0.775109 7.63434 0.954054 7.20233 1.27258 6.8838C1.5911 6.56528 2.02311 6.38634 2.47357 6.38634ZM2.47357 1.85712C2.80949 1.85712 3.13787 1.95673 3.41718 2.14336C3.69649 2.32999 3.91419 2.59525 4.04274 2.9056C4.17129 3.21596 4.20493 3.55746 4.13939 3.88693C4.07386 4.2164 3.91209 4.51903 3.67456 4.75657C3.43703 4.9941 3.13439 5.15586 2.80492 5.2214C2.47545 5.28693 2.13395 5.2533 1.8236 5.12475C1.51324 4.99619 1.24798 4.7785 1.06135 4.49919C0.874722 4.21988 0.775109 3.8915 0.775109 3.55557C0.775109 3.10512 0.954054 2.67311 1.27258 2.35458C1.5911 2.03606 2.02311 1.85712 2.47357 1.85712ZM11.532 10.9156C11.8679 10.9156 12.1963 11.0152 12.4756 11.2018C12.7549 11.3884 12.9726 11.6537 13.1012 11.964C13.2297 12.2744 13.2634 12.6159 13.1978 12.9454C13.1323 13.2748 12.9705 13.5775 12.733 13.815C12.4955 14.0525 12.1928 14.2143 11.8634 14.2798C11.5339 14.3454 11.1924 14.3117 10.882 14.1832C10.5717 14.0546 10.3064 13.8369 10.1198 13.5576C9.93317 13.2783 9.83355 12.9499 9.83355 12.614C9.83355 12.1636 10.0125 11.7315 10.331 11.413C10.6495 11.0945 11.0816 10.9156 11.532 10.9156ZM11.532 6.38634C11.8679 6.38634 12.1963 6.48595 12.4756 6.67258C12.7549 6.85921 12.9726 7.12447 13.1012 7.43482C13.2297 7.74518 13.2634 8.08668 13.1978 8.41615C13.1323 8.74562 12.9705 9.04825 12.733 9.28579C12.4955 9.52332 12.1928 9.68508 11.8634 9.75062C11.5339 9.81615 11.1924 9.78252 10.882 9.65397C10.5717 9.52541 10.3064 9.30772 10.1198 9.02841C9.93317 8.7491 9.83355 8.42072 9.83355 8.0848C9.83355 7.63434 10.0125 7.20233 10.331 6.8838C10.6495 6.56528 11.0816 6.38634 11.532 6.38634ZM11.532 1.85712C11.8679 1.85712 12.1963 1.95673 12.4756 2.14336C12.7549 2.32999 12.9726 2.59525 13.1012 2.9056C13.2297 3.21596 13.2634 3.55746 13.1978 3.88693C13.1323 4.2164 12.9705 4.51903 12.733 4.75657C12.4955 4.9941 12.1928 5.15586 11.8634 5.2214C11.5339 5.28693 11.1924 5.2533 10.882 5.12475C10.5717 4.99619 10.3064 4.7785 10.1198 4.49919C9.93317 4.21988 9.83355 3.8915 9.83355 3.55557C9.83355 3.10512 10.0125 2.67311 10.331 2.35458C10.6495 2.03606 11.0816 1.85712 11.532 1.85712Z" fill="#364A73"/>
</svg>
