<svg width="80" height="20" viewBox="0 0 80 20" fill="none" xmlns="http://www.w3.org/2000/svg">
<path d="M16.9322 7.79458C16.6957 5.40707 15.5353 3.34899 13.8538 1.94976C12.1691 0.547264 9.96338 -0.196385 7.63297 0.0449747C5.29617 0.286334 3.27902 1.4703 1.91083 3.18917C0.539431 4.90805 -0.192608 7.16182 0.0439494 9.53954C0.168622 10.7822 0.542628 11.9368 1.11164 12.9577C1.45369 13.5709 1.85328 14.0797 2.26886 14.6277C2.43509 14.8495 2.58534 15.0549 2.71641 15.2539C2.72919 15.2735 2.74198 15.2963 2.75477 15.3159C2.99452 15.7236 3.15116 16.19 3.19912 16.6955C3.28543 17.6023 3.00091 18.4633 2.47345 19.1124C2.43829 19.1581 2.39994 19.2005 2.36158 19.2429C3.4101 19.8136 4.62483 20.0909 5.89073 19.9735V19.9767L5.96105 19.9669C7.69687 19.7843 9.19936 18.9036 10.2223 17.6218C10.3694 17.4392 10.5068 17.2467 10.6315 17.0478C12.4185 16.5749 13.9561 15.5311 15.0686 14.1384C16.44 12.4261 17.1688 10.1723 16.9322 7.79458ZM12.9587 12.3935C12.1787 13.3719 11.1366 14.0536 9.9474 14.3667L8.91802 14.6375L8.34264 15.5474C8.27231 15.6583 8.1956 15.766 8.11568 15.8671C7.55625 16.5683 6.78901 17.025 5.92909 17.175C5.93549 16.9793 5.92912 16.7803 5.91633 16.5814V16.5683L5.90353 16.4379C5.82042 15.5344 5.54548 14.6766 5.08835 13.8971C5.05639 13.8449 5.02444 13.7894 4.98927 13.734C4.79427 13.4339 4.58328 13.1502 4.42345 12.9349L4.27961 12.7457C3.95994 12.325 3.68182 11.9597 3.47723 11.5878C3.07764 10.8735 2.83468 10.0908 2.75157 9.25904C2.59493 7.69347 3.04566 6.16051 4.02066 4.94066C4.99246 3.72082 6.37346 2.96412 7.91109 2.8043C8.10928 2.78473 8.30747 2.77495 8.50567 2.77495C9.81953 2.77495 11.111 3.24462 12.1371 4.09916C13.3295 5.0907 14.0712 6.50298 14.2278 8.07508C14.3845 9.64065 13.9337 11.1736 12.9587 12.3935Z" fill="white"/>
<path fill-rule="evenodd" clip-rule="evenodd" d="M8.47461 5.5L9.97461 7L8.47461 8.5L6.97461 7L8.47461 5.5ZM6.72461 7.25L8.22461 8.75L6.72461 10.25L5.22461 8.75L6.72461 7.25ZM11.7246 8.75L10.2246 7.25L8.72461 8.75L10.2246 10.25L11.7246 8.75ZM8.47461 9L9.97461 10.5L8.47461 12L6.97461 10.5L8.47461 9Z" fill="white"/>
<path d="M25.4095 13.5771C24.8742 13.5771 24.3902 13.4854 23.9575 13.3021C23.5322 13.1188 23.1949 12.8548 22.9455 12.5101C22.6962 12.1654 22.5679 11.7584 22.5605 11.2891H24.2105C24.2325 11.6044 24.3425 11.8538 24.5405 12.0371C24.7459 12.2204 25.0245 12.3121 25.3765 12.3121C25.7359 12.3121 26.0182 12.2278 26.2235 12.0591C26.4289 11.8831 26.5315 11.6558 26.5315 11.3771C26.5315 11.1498 26.4619 10.9628 26.3225 10.8161C26.1832 10.6694 26.0072 10.5558 25.7945 10.4751C25.5892 10.3871 25.3032 10.2918 24.9365 10.1891C24.4379 10.0424 24.0309 9.89945 23.7155 9.76011C23.4075 9.61345 23.1399 9.39711 22.9125 9.11111C22.6925 8.81778 22.5825 8.42911 22.5825 7.94511C22.5825 7.49045 22.6962 7.09445 22.9235 6.75711C23.1509 6.41978 23.4699 6.16311 23.8805 5.98711C24.2912 5.80378 24.7605 5.71211 25.2885 5.71211C26.0805 5.71211 26.7222 5.90645 27.2135 6.29511C27.7122 6.67645 27.9872 7.21178 28.0385 7.90111H26.3445C26.3299 7.63711 26.2162 7.42078 26.0035 7.25211C25.7982 7.07611 25.5232 6.98811 25.1785 6.98811C24.8779 6.98811 24.6359 7.06511 24.4525 7.21911C24.2765 7.37311 24.1885 7.59678 24.1885 7.89011C24.1885 8.09545 24.2545 8.26778 24.3865 8.40711C24.5259 8.53911 24.6945 8.64911 24.8925 8.73711C25.0979 8.81778 25.3839 8.91311 25.7505 9.02311C26.2492 9.16978 26.6562 9.31645 26.9715 9.46311C27.2869 9.60978 27.5582 9.82978 27.7855 10.1231C28.0129 10.4164 28.1265 10.8014 28.1265 11.2781C28.1265 11.6888 28.0202 12.0701 27.8075 12.4221C27.5949 12.7741 27.2832 13.0564 26.8725 13.2691C26.4619 13.4744 25.9742 13.5771 25.4095 13.5771Z" fill="white"/>
<path d="M32.1177 13.5991C31.531 13.5991 31.003 13.4708 30.5337 13.2141C30.0643 12.9501 29.694 12.5798 29.4227 12.1031C29.1587 11.6264 29.0267 11.0764 29.0267 10.4531C29.0267 9.82978 29.1623 9.27978 29.4337 8.80311C29.7123 8.32645 30.09 7.95978 30.5667 7.70311C31.0433 7.43911 31.575 7.30711 32.1617 7.30711C32.7483 7.30711 33.28 7.43911 33.7567 7.70311C34.2333 7.95978 34.6073 8.32645 34.8787 8.80311C35.1573 9.27978 35.2967 9.82978 35.2967 10.4531C35.2967 11.0764 35.1537 11.6264 34.8677 12.1031C34.589 12.5798 34.2077 12.9501 33.7237 13.2141C33.247 13.4708 32.7117 13.5991 32.1177 13.5991ZM32.1177 12.2571C32.3963 12.2571 32.6567 12.1911 32.8987 12.0591C33.148 11.9198 33.346 11.7144 33.4927 11.4431C33.6393 11.1718 33.7127 10.8418 33.7127 10.4531C33.7127 9.87378 33.5587 9.43011 33.2507 9.12211C32.95 8.80678 32.5797 8.64911 32.1397 8.64911C31.6997 8.64911 31.3293 8.80678 31.0287 9.12211C30.7353 9.43011 30.5887 9.87378 30.5887 10.4531C30.5887 11.0324 30.7317 11.4798 31.0177 11.7951C31.311 12.1031 31.6777 12.2571 32.1177 12.2571Z" fill="white"/>
<path d="M39.1703 8.67111H38.1033V13.5001H36.5413V8.67111H35.8483V7.40611H36.5413V7.09811C36.5413 6.35011 36.754 5.80011 37.1793 5.44811C37.6047 5.09611 38.2463 4.93111 39.1043 4.95311V6.25111C38.7303 6.24378 38.47 6.30611 38.3233 6.43811C38.1767 6.57011 38.1033 6.80845 38.1033 7.15311V7.40611H39.1703V8.67111Z" fill="white"/>
<path d="M41.9113 8.67111V11.6191C41.9113 11.8244 41.959 11.9748 42.0543 12.0701C42.157 12.1581 42.3256 12.2021 42.5603 12.2021H43.2753V13.5001H42.3073C41.0093 13.5001 40.3603 12.8694 40.3603 11.6081V8.67111H39.6343V7.40611H40.3603V5.89911H41.9113V7.40611H43.2753V8.67111H41.9113Z" fill="white"/>
<path d="M45.873 8.28611C46.071 8.00745 46.3423 7.77645 46.687 7.59311C47.039 7.40245 47.4386 7.30711 47.886 7.30711C48.4066 7.30711 48.876 7.43545 49.294 7.69211C49.7193 7.94878 50.053 8.31545 50.295 8.79211C50.5443 9.26145 50.669 9.80778 50.669 10.4311C50.669 11.0544 50.5443 11.6081 50.295 12.0921C50.053 12.5688 49.7193 12.9391 49.294 13.2031C48.876 13.4671 48.4066 13.5991 47.886 13.5991C47.4386 13.5991 47.0426 13.5074 46.698 13.3241C46.3606 13.1408 46.0856 12.9098 45.873 12.6311V16.4041H44.333V7.40611H45.873V8.28611ZM49.096 10.4311C49.096 10.0644 49.019 9.74911 48.865 9.48511C48.7183 9.21378 48.5203 9.00845 48.271 8.86911C48.029 8.72978 47.765 8.66011 47.479 8.66011C47.2003 8.66011 46.9363 8.73345 46.687 8.88011C46.445 9.01945 46.247 9.22478 46.093 9.49611C45.9463 9.76745 45.873 10.0864 45.873 10.4531C45.873 10.8198 45.9463 11.1388 46.093 11.4101C46.247 11.6814 46.445 11.8904 46.687 12.0371C46.9363 12.1764 47.2003 12.2461 47.479 12.2461C47.765 12.2461 48.029 12.1728 48.271 12.0261C48.5203 11.8794 48.7183 11.6704 48.865 11.3991C49.019 11.1278 49.096 10.8051 49.096 10.4311Z" fill="white"/>
<path d="M55.17 7.31811C55.632 7.31811 56.0427 7.42078 56.402 7.62611C56.7614 7.82411 57.04 8.12111 57.238 8.51711C57.4434 8.90578 57.546 9.37511 57.546 9.92511V13.5001H56.006V10.1341C56.006 9.65011 55.885 9.27978 55.643 9.02311C55.401 8.75911 55.071 8.62711 54.653 8.62711C54.2277 8.62711 53.8904 8.75911 53.641 9.02311C53.399 9.27978 53.278 9.65011 53.278 10.1341V13.5001H51.738V5.36011H53.278V8.16511C53.476 7.90111 53.74 7.69578 54.07 7.54911C54.4 7.39511 54.7667 7.31811 55.17 7.31811Z" fill="white"/>
<path d="M61.6665 13.5991C61.0798 13.5991 60.5518 13.4708 60.0825 13.2141C59.6132 12.9501 59.2428 12.5798 58.9715 12.1031C58.7075 11.6264 58.5755 11.0764 58.5755 10.4531C58.5755 9.82978 58.7112 9.27978 58.9825 8.80311C59.2612 8.32645 59.6388 7.95978 60.1155 7.70311C60.5922 7.43911 61.1238 7.30711 61.7105 7.30711C62.2972 7.30711 62.8288 7.43911 63.3055 7.70311C63.7822 7.95978 64.1562 8.32645 64.4275 8.80311C64.7062 9.27978 64.8455 9.82978 64.8455 10.4531C64.8455 11.0764 64.7025 11.6264 64.4165 12.1031C64.1378 12.5798 63.7565 12.9501 63.2725 13.2141C62.7958 13.4708 62.2605 13.5991 61.6665 13.5991ZM61.6665 12.2571C61.9452 12.2571 62.2055 12.1911 62.4475 12.0591C62.6968 11.9198 62.8948 11.7144 63.0415 11.4431C63.1882 11.1718 63.2615 10.8418 63.2615 10.4531C63.2615 9.87378 63.1075 9.43011 62.7995 9.12211C62.4988 8.80678 62.1285 8.64911 61.6885 8.64911C61.2485 8.64911 60.8782 8.80678 60.5775 9.12211C60.2842 9.43011 60.1375 9.87378 60.1375 10.4531C60.1375 11.0324 60.2805 11.4798 60.5665 11.7951C60.8598 12.1031 61.2265 12.2571 61.6665 12.2571Z" fill="white"/>
<path d="M69.3022 7.31811C70.0282 7.31811 70.6148 7.54911 71.0621 8.01111C71.5095 8.46578 71.7332 9.10378 71.7332 9.92511V13.5001H70.1931V10.1341C70.1931 9.65011 70.0722 9.27978 69.8302 9.02311C69.5882 8.75911 69.2581 8.62711 68.8401 8.62711C68.4148 8.62711 68.0775 8.75911 67.8281 9.02311C67.5861 9.27978 67.4651 9.65011 67.4651 10.1341V13.5001H65.9251V7.40611H67.4651V8.16511C67.6705 7.90111 67.9308 7.69578 68.2462 7.54911C68.5688 7.39511 68.9208 7.31811 69.3022 7.31811Z" fill="white"/>
<path d="M78.8126 10.3211C78.8126 10.5411 78.7979 10.7391 78.7686 10.9151H74.3136C74.3503 11.3551 74.5043 11.6998 74.7756 11.9491C75.0469 12.1984 75.3806 12.3231 75.7766 12.3231C76.3486 12.3231 76.7556 12.0774 76.9976 11.5861H78.6586C78.4826 12.1728 78.1453 12.6568 77.6466 13.0381C77.1479 13.4121 76.5356 13.5991 75.8096 13.5991C75.2229 13.5991 74.6949 13.4708 74.2256 13.2141C73.7636 12.9501 73.4006 12.5798 73.1366 12.1031C72.8799 11.6264 72.7516 11.0764 72.7516 10.4531C72.7516 9.82245 72.8799 9.26878 73.1366 8.79211C73.3933 8.31545 73.7526 7.94878 74.2146 7.69211C74.6766 7.43545 75.2083 7.30711 75.8096 7.30711C76.3889 7.30711 76.9059 7.43178 77.3606 7.68111C77.8226 7.93045 78.1783 8.28611 78.4276 8.74811C78.6843 9.20278 78.8126 9.72711 78.8126 10.3211ZM77.2176 9.88111C77.2103 9.48511 77.0673 9.16978 76.7886 8.93511C76.5099 8.69311 76.1689 8.57211 75.7656 8.57211C75.3843 8.57211 75.0616 8.68945 74.7976 8.92411C74.5409 9.15145 74.3833 9.47045 74.3246 9.88111H77.2176Z" fill="white"/>
</svg>
