<svg width="22" height="18" viewBox="0 0 22 18" fill="none" xmlns="http://www.w3.org/2000/svg"><g clip-path="url(#clip0_160_2211)"><path d="M21.7875 15.9471L16.3632 11.7548C16.7959 10.9294 17.05 9.99717 17.05 8.99995V7.34995C17.05 7.04608 16.8038 6.79995 16.5 6.79995H15.95C15.6461 6.79995 15.4 7.04608 15.4 7.34995V8.99995C15.4 9.61595 15.2638 10.1962 15.0315 10.7256L14.1188 10.0202C14.2254 9.69708 14.3003 9.35951 14.3003 9.0003V3.49995C14.3003 1.67739 12.8229 0.199951 11.0003 0.199951C9.17775 0.199951 7.70031 1.67739 7.70031 3.49995V5.0592L1.563 0.315795C1.32306 0.129482 0.977251 0.172451 0.790938 0.412389L0.115813 1.28104C-0.0704992 1.52064 -0.0275305 1.86611 0.212407 2.05276L20.4373 17.6841C20.6772 17.8708 21.0227 17.8275 21.2093 17.5875L21.8845 16.7189C22.0704 16.4793 22.0275 16.1338 21.7875 15.9471ZM13.75 16.15H11.825V14.9891C12.2258 14.9341 12.6104 14.833 12.9824 14.7035L11.2598 13.3721C11.0292 13.3859 10.7989 13.402 10.5603 13.379C8.64047 13.1916 7.16613 11.7073 6.7385 9.87789L4.94997 8.49498V8.73045C4.94997 11.8118 7.14894 14.5587 10.175 14.976V16.15H8.24997C7.94609 16.15 7.69997 16.3961 7.69997 16.7V17.25C7.69997 17.5538 7.94609 17.8 8.24997 17.8H13.75C14.0538 17.8 14.3 17.5538 14.3 17.25V16.7C14.3 16.3961 14.0538 16.15 13.75 16.15Z" fill="white"/></g><defs><clipPath id="clip0_160_2211"><rect width="22" height="17.6" fill="white" transform="translate(0 0.199951)"/></clipPath></defs></svg>
