<svg width="48" height="48" viewBox="0 0 48 48" fill="none" xmlns="http://www.w3.org/2000/svg"><rect width="48" height="48" rx="4" fill="#364A73"/><path d="M27.9286 26.8571H34V15.0714C34 14.4777 33.5223 14 32.9286 14H15.0714C14.4777 14 14 14.4777 14 15.0714V32.9286C14 33.5223 14.4777 34 15.0714 34H26.8571V27.9286C26.8571 27.3393 27.3393 26.8571 27.9286 26.8571ZM33.6875 29.3125L29.3125 33.6875C29.1116 33.8884 28.8393 34 28.5536 34H28.2857V28.2857H34V28.558C34 28.8393 33.8884 29.1116 33.6875 29.3125Z" fill="white"/><path d="M19 19H29" stroke="#364A73" stroke-width="1.6" stroke-linecap="round"/><path d="M19 23H29" stroke="#364A73" stroke-width="1.6" stroke-linecap="round"/><path d="M19 27H24" stroke="#364A73" stroke-width="1.6" stroke-linecap="round"/></svg>
