<svg width="26" height="18" viewBox="0 0 26 18" fill="none" xmlns="http://www.w3.org/2000/svg"><g clip-path="url(#clip0_160_1579)"><path d="M1.55046 10.1157L3.50431 13.2418C3.71679 13.5813 4.14419 13.7205 4.51543 13.574L8.42312 12.0109C8.76504 11.8741 8.97753 11.5249 8.93845 11.1585L8.66979 8.46709C11.4223 7.47307 14.5167 7.45109 17.3253 8.46709L17.0567 11.1585C17.0201 11.5273 17.2301 11.8741 17.572 12.0109L21.4797 13.574C21.8558 13.7205 22.2832 13.5813 22.4957 13.2418L24.4496 10.1157C24.6523 9.79082 24.6083 9.36586 24.3323 9.08988C18.0776 2.83512 7.93221 2.82536 1.66769 9.08988C1.39415 9.36342 1.34531 9.78838 1.55046 10.1157Z" fill="#FF622A"/></g><defs><clipPath id="clip0_160_1579"><rect width="25.2632" height="17.6842" fill="white" transform="translate(0.369141 0.157959)"/></clipPath></defs></svg>
