<svg width="14" height="14" viewBox="0 0 14 14" fill="none" xmlns="http://www.w3.org/2000/svg">
<path d="M13.4917 0.672098L10.6479 0.0158475C10.339 -0.0552463 10.0218 0.106082 9.89599 0.395926L8.58349 3.45843C8.46865 3.72639 8.54521 4.04085 8.77216 4.22405L10.4292 5.5803C9.44482 7.67757 7.7249 9.4221 5.58388 10.4256L4.22763 8.76858C4.04169 8.54163 3.72997 8.46507 3.462 8.57991L0.399504 9.89241C0.106925 10.0209 -0.0544027 10.3381 0.0166911 10.6471L0.672941 13.4908C0.741301 13.7862 1.0038 13.9994 1.31278 13.9994C8.31552 13.9994 14.0003 8.32561 14.0003 1.31194C14.0003 1.00569 13.7897 0.740457 13.4917 0.672098Z" fill="white"/>
</svg>
