<svg width="12" height="13" viewBox="0 0 12 13" fill="none" xmlns="http://www.w3.org/2000/svg">
<g clip-path="url(#clip0_104_715)">
<path d="M10.7146 8.56721L8.52715 7.62971C8.4337 7.58988 8.32984 7.58149 8.23121 7.60579C8.13258 7.6301 8.04452 7.68579 7.98027 7.76447L7.01152 8.94807C5.49116 8.23123 4.26762 7.00769 3.55078 5.48732L4.73437 4.51857C4.81322 4.45445 4.86902 4.36638 4.89334 4.2677C4.91766 4.16903 4.90916 4.06512 4.86914 3.9717L3.93164 1.7842C3.88772 1.6835 3.81003 1.60128 3.71198 1.55172C3.61393 1.50216 3.50166 1.48836 3.39453 1.51271L1.36328 1.98146C1.25999 2.00531 1.16784 2.06347 1.10186 2.14644C1.03588 2.22941 0.999976 2.33229 1 2.4383C1 7.44807 5.06055 11.5008 10.0625 11.5008C10.1685 11.5009 10.2715 11.465 10.3545 11.399C10.4375 11.333 10.4957 11.2408 10.5195 11.1375L10.9883 9.10627C11.0125 8.99862 10.9984 8.8859 10.9484 8.78751C10.8985 8.68912 10.8158 8.61122 10.7146 8.56721V8.56721Z" stroke="#A6B4D0"/>
<path d="M7.50709 5.5H9.20667C9.53018 5.5 9.69361 5.10746 9.46427 4.87811L8.97879 4.39259L11.9467 1.42473C12.0178 1.3536 12.0178 1.23827 11.9467 1.16713L11.4757 0.696145C11.4045 0.625017 11.2892 0.625017 11.2181 0.696145L8.25023 3.66399L7.76469 3.17841C7.53657 2.95031 7.1428 3.11048 7.1428 3.436V5.13571C7.1428 5.3369 7.30589 5.5 7.50709 5.5Z" fill="#A6B4D0"/>
</g>
<defs>
<clipPath id="clip0_104_715">
<rect width="12" height="12" fill="white" transform="translate(0 0.5)"/>
</clipPath>
</defs>
</svg>
