<svg width="14" height="14" viewBox="0 0 14 14" fill="none" xmlns="http://www.w3.org/2000/svg">
<g clip-path="url(#clip0_108_444)">
<path d="M13.4917 0.67222L10.6479 0.0159695C10.339 -0.0551242 10.0218 0.106204 9.89599 0.396048L8.58349 3.45855C8.46865 3.72652 8.54521 4.04097 8.77216 4.22417L10.4292 5.58042C9.44482 7.67769 7.7249 9.42222 5.58388 10.4257L4.22763 8.76871C4.04169 8.54175 3.72997 8.46519 3.462 8.58003L0.399504 9.89253C0.106925 10.021 -0.0544027 10.3382 0.0166911 10.6472L0.672941 13.491C0.741301 13.7863 1.0038 13.9996 1.31278 13.9996C8.31552 13.9996 14.0003 8.32574 14.0003 1.31206C14.0003 1.00581 13.7897 0.740579 13.4917 0.67222Z" fill="#364A73"/>
</g>
<defs>
<clipPath id="clip0_108_444">
<rect width="14" height="14" fill="white"/>
</clipPath>
</defs>
</svg>
