<svg width="16" height="7" viewBox="0 0 16 7" fill="none" xmlns="http://www.w3.org/2000/svg">
<path d="M3.20444 5.87272L5.41415 4.98883C5.50839 4.95091 5.58776 4.88341 5.64031 4.79648C5.69287 4.70955 5.71577 4.6079 5.70555 4.50684L5.55364 2.9849C7.13558 2.41672 8.86593 2.41672 10.4479 2.9849L10.2959 4.50684C10.2855 4.60793 10.3084 4.70967 10.3609 4.79663C10.4135 4.8836 10.493 4.95107 10.5874 4.98883L12.7971 5.87272C12.8993 5.91286 13.0124 5.91607 13.1168 5.88178C13.2211 5.84749 13.3103 5.77786 13.3688 5.68489L14.4737 3.91712C14.5298 3.82722 14.5539 3.72094 14.5419 3.61562C14.5299 3.51029 14.4825 3.41215 14.4075 3.33721C10.8651 -0.205227 5.12813 -0.199703 1.59121 3.33721C1.51619 3.41214 1.46878 3.5103 1.45674 3.61566C1.4447 3.72101 1.46874 3.82733 1.52492 3.91726L2.62978 5.68503C2.68879 5.77826 2.77846 5.848 2.88334 5.88226C2.98823 5.91651 3.10177 5.91314 3.20444 5.87272V5.87272Z" stroke="#FF622A"/>
</svg>
