<svg width="16" height="16" viewBox="0 0 16 16" fill="none" xmlns="http://www.w3.org/2000/svg">
<path d="M14.9036 13.8209L11.5842 10.5015C11.5214 10.4386 11.4393 10.4058 11.3518 10.4058H10.9909C11.8522 9.40779 12.3744 8.10903 12.3744 6.68722C12.3744 3.54558 9.82887 1 6.68722 1C3.54558 1 1 3.54558 1 6.68722C1 9.82887 3.54558 12.3744 6.68722 12.3744C8.10903 12.3744 9.40779 11.8522 10.4058 10.9909V11.3518C10.4058 11.4393 10.4413 11.5214 10.5015 11.5842L13.8209 14.9036C13.9494 15.0321 14.1572 15.0321 14.2857 14.9036L14.9036 14.2857C15.0321 14.1572 15.0321 13.9494 14.9036 13.8209ZM6.68722 11.062C4.27015 11.062 2.31244 9.10429 2.31244 6.68722C2.31244 4.27015 4.27015 2.31244 6.68722 2.31244C9.10429 2.31244 11.062 4.27015 11.062 6.68722C11.062 9.10429 9.10429 11.062 6.68722 11.062Z" fill="#A6B4D0"/>
</svg>
